<?xml version="1.0" standalone="no"?>
<!DOCTYPE svg PUBLIC "-//W3C//DTD SVG 20010904//EN"
 "http://www.w3.org/TR/2001/REC-SVG-20010904/DTD/svg10.dtd">
<svg version="1.0" xmlns="http://www.w3.org/2000/svg"
 width="700.000000pt" height="700.000000pt" viewBox="0 0 700.000000 700.000000"
 preserveAspectRatio="xMidYMid meet">
<metadata>
Created by potrace 1.11, written by Peter Selinger 2001-2013
</metadata>
<g transform="translate(0.000000,700.000000) scale(0.100000,-0.100000)"
fill="#000000" stroke="none">
<path d="M3285 6994 c-203 -20 -276 -28 -375 -45 -610 -105 -1195 -376 -1665
-772 -95 -81 -310 -294 -394 -392 -468 -542 -742 -1176 -833 -1925 -17 -137
-17 -583 0 -720 69 -569 227 -1028 514 -1491 145 -236 311 -440 525 -649 204
-200 371 -332 592 -468 463 -287 922 -445 1491 -514 137 -17 583 -17 720 0
569 69 1028 227 1491 514 360 222 692 528 958 882 323 430 549 960 640 1501
38 223 46 327 46 585 0 258 -8 362 -46 585 -105 627 -382 1216 -800 1700 -84
98 -299 311 -394 392 -518 437 -1148 710 -1845 798 -117 15 -536 28 -625 19z
m1335 -1299 c519 -115 910 -525 996 -1044 22 -138 15 -368 -16 -491 -42 -168
-92 -284 -188 -430 -44 -68 -139 -169 -463 -495 l-408 -410 -171 170 -170 169
384 386 c226 228 400 411 425 448 111 165 161 381 131 562 -65 392 -379 667
-770 673 -118 2 -203 -13 -303 -54 -140 -56 -167 -79 -585 -494 l-402 -400
-173 173 -172 173 395 393 c217 216 420 411 451 433 183 134 357 209 579 249
99 18 358 11 460 -11z m-437 -1433 l177 -177 -723 -723 -722 -722 -180 180
-180 180 720 720 c396 396 722 720 725 720 3 0 85 -80 183 -178z m-1638 -172
l169 -170 -399 -402 c-415 -418 -438 -445 -494 -585 -41 -100 -56 -185 -54
-303 9 -630 709 -993 1235 -639 37 25 220 199 448 425 l386 384 169 -170 170
-171 -410 -408 c-326 -324 -427 -419 -495 -463 -146 -96 -262 -146 -430 -188
-123 -31 -353 -38 -491 -16 -523 87 -932 480 -1046 1006 -25 119 -25 381 0
500 38 177 100 322 203 477 46 69 145 175 458 491 220 221 402 402 405 402 4
0 83 -76 176 -170z"/>
</g>
</svg>
